<svg viewBox="0 0 121 44" fill="none" xmlns="http://www.w3.org/2000/svg"><mask id="a" style="mask-type:alpha" maskUnits="userSpaceOnUse" x="0" y="0" width="121" height="44"><path fill="#fff" d="M0 0h121v44H0z"/></mask><g mask="url(#a)"><path d="M30 40h22M3-4l29 49M75-3L46 46m25-6h22M44-5l29 49m45-49L89 44M51 4H29M3 48L32-1" stroke="#fff" stroke-width="9" stroke-linejoin="round"/><mask id="b" style="mask-type:alpha" maskUnits="userSpaceOnUse" x="43" y="-3" width="37" height="55"><path d="M47 0l29 49" stroke="#fff" stroke-width="9" stroke-linejoin="round"/></mask><g mask="url(#b)"><path d="M46 34l28-47" stroke="#000" stroke-opacity=".5" stroke-width="3" stroke-linejoin="round"/></g><mask id="c" style="mask-type:alpha" maskUnits="userSpaceOnUse" x="-4" y="-12" width="37" height="55"><path d="M0-9l29 49" stroke="#fff" stroke-width="9" stroke-linejoin="round"/></mask><g mask="url(#c)"><path d="M-2 68l28-47" stroke="#000" stroke-opacity=".5" stroke-width="3" stroke-linejoin="round"/></g></g></svg>
